<svg width="200" height="0" viewBox="0 0 483 158" fill="none" xmlns="http://www.w3.org/2000/svg">
<g filter="url(#filter0_i_11_241)">
<rect x="467" y="63" width="16" height="33" fill="#A09B9B"/>
</g>
<rect x="469" y="65" width="12" height="29" stroke="black" stroke-width="4"/>
<rect x="350.5" y="15.5" width="9" height="18" fill="#EAEE35" stroke="black" stroke-width="3"/>
<rect x="350.5" y="15.5" width="9" height="18" fill="#EAEE35" stroke="black" stroke-width="3"/>
<rect x="310.5" y="15.5" width="9" height="18" fill="#EAEE35" stroke="black" stroke-width="3"/>
<rect x="270.5" y="15.5" width="9" height="18" fill="#EAEE35" stroke="black" stroke-width="3"/>
<rect x="232.5" y="15.5" width="9" height="18" fill="#EAEE35" stroke="black" stroke-width="3"/>
<rect x="111.5" y="15.5" width="9" height="18" fill="#EAEE35" stroke="black" stroke-width="3"/>
<rect x="111.5" y="124.5" width="9" height="18" fill="#EAEE35" stroke="black" stroke-width="3"/>
<rect x="150.5" y="124.5" width="9" height="18" fill="#EAEE35" stroke="black" stroke-width="3"/>
<rect x="190.5" y="124.5" width="9" height="18" fill="#EAEE35" stroke="black" stroke-width="3"/>
<rect x="232.5" y="124.5" width="9" height="18" fill="#EAEE35" stroke="black" stroke-width="3"/>
<rect x="270.5" y="124.5" width="9" height="18" fill="#EAEE35" stroke="black" stroke-width="3"/>
<rect x="310.5" y="124.5" width="9" height="18" fill="#EAEE35" stroke="black" stroke-width="3"/>
<rect x="350.5" y="124.5" width="9" height="18" fill="#EAEE35" stroke="black" stroke-width="3"/>
<rect x="150.5" y="15.5" width="9" height="18" fill="#EAEE35" stroke="black" stroke-width="3"/>
<rect x="190.5" y="15.5" width="9" height="18" fill="#EAEE35" stroke="black" stroke-width="3"/>
<rect x="115" width="2" height="18" fill="black"/>
<rect x="154" width="2" height="18" fill="black"/>
<rect x="194" width="2" height="18" fill="black"/>
<rect x="236" width="2" height="18" fill="black"/>
<rect x="274" width="2" height="18" fill="black"/>
<rect x="314" width="2" height="18" fill="black"/>
<rect x="354" width="2" height="18" fill="black"/>
<rect x="115" y="140" width="2" height="18" fill="black"/>
<rect x="154" y="140" width="2" height="18" fill="black"/>
<rect x="194" y="140" width="2" height="18" fill="black"/>
<rect x="236" y="140" width="2" height="18" fill="black"/>
<rect x="274" y="140" width="2" height="18" fill="black"/>
<rect x="314" y="140" width="2" height="18" fill="black"/>
<rect x="354" y="140" width="2" height="18" fill="black"/>
<g filter="url(#filter1_ii_11_241)">
<rect x="33" y="25" width="406" height="111" fill="#A09B9B"/>
</g>
<rect x="35" y="27" width="402" height="107" stroke="black" stroke-width="4"/>
<rect x="2" y="18" width="33" height="124" fill="#F25D5D" stroke="black" stroke-width="4"/>
<rect x="437" y="18" width="33" height="124" fill="#53CE60" stroke="black" stroke-width="4"/>
<rect x="9" y="81" width="19" height="3" rx="1.5" fill="black"/>
<rect x="445" y="81" width="19" height="3" rx="1.5" fill="black"/>
<rect x="453" y="92" width="19" height="3" rx="1.5" transform="rotate(-90 453 92)" fill="black"/>
<g filter="url(#filter2_i_11_241)">
<path d="M388.5 72V96.8793L284.5 85.5V109L74.5 52.5L262.5 77.5V58L388.5 72Z" fill="#F4F76F"/>
</g>
<path d="M282.5 85.5V106.391L104.549 58.5135L262.236 79.4825L264.5 79.7836V77.5V60.2345L386.5 73.7901V94.6485L284.718 83.5119L282.5 83.2692V85.5Z" stroke="black" stroke-width="4"/>
<defs>
<filter id="filter0_i_11_241" x="467" y="63" width="16" height="33" filterUnits="userSpaceOnUse" color-interpolation-filters="sRGB">
<feFlood flood-opacity="0" result="BackgroundImageFix"/>
<feBlend mode="normal" in="SourceGraphic" in2="BackgroundImageFix" result="shape"/>
<feColorMatrix in="SourceAlpha" type="matrix" values="0 0 0 0 0 0 0 0 0 0 0 0 0 0 0 0 0 0 127 0" result="hardAlpha"/>
<feOffset dx="8"/>
<feComposite in2="hardAlpha" operator="arithmetic" k2="-1" k3="1"/>
<feColorMatrix type="matrix" values="0 0 0 0 0 0 0 0 0 0 0 0 0 0 0 0 0 0 0.25 0"/>
<feBlend mode="normal" in2="shape" result="effect1_innerShadow_11_241"/>
</filter>
<filter id="filter1_ii_11_241" x="33" y="25" width="406" height="111" filterUnits="userSpaceOnUse" color-interpolation-filters="sRGB">
<feFlood flood-opacity="0" result="BackgroundImageFix"/>
<feBlend mode="normal" in="SourceGraphic" in2="BackgroundImageFix" result="shape"/>
<feColorMatrix in="SourceAlpha" type="matrix" values="0 0 0 0 0 0 0 0 0 0 0 0 0 0 0 0 0 0 127 0" result="hardAlpha"/>
<feOffset dx="10"/>
<feComposite in2="hardAlpha" operator="arithmetic" k2="-1" k3="1"/>
<feColorMatrix type="matrix" values="0 0 0 0 0 0 0 0 0 0 0 0 0 0 0 0 0 0 0.15 0"/>
<feBlend mode="normal" in2="shape" result="effect1_innerShadow_11_241"/>
<feColorMatrix in="SourceAlpha" type="matrix" values="0 0 0 0 0 0 0 0 0 0 0 0 0 0 0 0 0 0 127 0" result="hardAlpha"/>
<feOffset dx="-10"/>
<feComposite in2="hardAlpha" operator="arithmetic" k2="-1" k3="1"/>
<feColorMatrix type="matrix" values="0 0 0 0 0 0 0 0 0 0 0 0 0 0 0 0 0 0 0.15 0"/>
<feBlend mode="normal" in2="effect1_innerShadow_11_241" result="effect2_innerShadow_11_241"/>
</filter>
<filter id="filter2_i_11_241" x="74.5" y="52.5" width="314" height="56.5" filterUnits="userSpaceOnUse" color-interpolation-filters="sRGB">
<feFlood flood-opacity="0" result="BackgroundImageFix"/>
<feBlend mode="normal" in="SourceGraphic" in2="BackgroundImageFix" result="shape"/>
<feColorMatrix in="SourceAlpha" type="matrix" values="0 0 0 0 0 0 0 0 0 0 0 0 0 0 0 0 0 0 127 0" result="hardAlpha"/>
<feOffset dx="3" dy="3"/>
<feComposite in2="hardAlpha" operator="arithmetic" k2="-1" k3="1"/>
<feColorMatrix type="matrix" values="0 0 0 0 0 0 0 0 0 0 0 0 0 0 0 0 0 0 0.5 0"/>
<feBlend mode="normal" in2="shape" result="effect1_innerShadow_11_241"/>
</filter>
</defs>
</svg>
