<svg width="50" height="37" viewBox="0 0 125 44" fill="none" xmlns="http://www.w3.org/2000/svg">
<rect x="3" y="9" width="120" height="27" rx="4" fill="#4D9F27" stroke="black" stroke-width="2"/>
<rect x="1" y="1" width="123" height="14" rx="7" fill="#80B3FF" stroke="black" stroke-width="2"/>
<rect x="9.75" y="6.75" width="101.5" height="2.5" rx="1.25" fill="#D0C6C6" stroke="black" stroke-width="1.5"/>
<path d="M4 16H6.6087L16 35H13.6522L8.43478 24.5806L4 16Z" fill="#F9EBEB" fill-opacity="0.71"/>
<path d="M4 16H6.6087L16 35H13.6522L8.43478 24.5806L4 16Z" fill="#F9EBEB" fill-opacity="0.71"/>
<path d="M4 16H6.6087L16 35H13.6522L8.43478 24.5806L4 16Z" fill="#F9EBEB" fill-opacity="0.71"/>
<path d="M8 16H10.6087L20 35H17.6522L12.4348 24.5806L8 16Z" fill="#F9EBEB" fill-opacity="0.71"/>
<path d="M8 16H10.6087L20 35H17.6522L12.4348 24.5806L8 16Z" fill="#F9EBEB" fill-opacity="0.71"/>
<path d="M8 16H10.6087L20 35H17.6522L12.4348 24.5806L8 16Z" fill="#F9EBEB" fill-opacity="0.71"/>
<rect x="16" y="31" width="4" height="9" fill="black"/>
<rect x="27" y="31" width="4" height="9" fill="black"/>
<rect x="37" y="31" width="4" height="9" fill="black"/>
<rect x="47" y="31" width="4" height="9" fill="black"/>
<rect x="47" y="31" width="4" height="9" fill="black"/>
<rect x="57" y="31" width="4" height="9" fill="black"/>
<rect x="67" y="31" width="4" height="9" fill="black"/>
<rect x="79" y="31" width="4" height="9" fill="black"/>
<rect x="91" y="31" width="4" height="9" fill="black"/>
<rect x="101" y="31" width="5" height="9" fill="black"/>
<path d="M18 37.5V43.5" stroke="black"/>
<path d="M29 37.5V43.5" stroke="black"/>
<path d="M39 37.5V43.5" stroke="black"/>
<path d="M49 37.5V43.5" stroke="black"/>
<path d="M59 37.5V43.5" stroke="black"/>
<path d="M69 37.5V43.5" stroke="black"/>
<path d="M81 37.5V43.5" stroke="black"/>
<path d="M93 37.5V43.5" stroke="black"/>
<path d="M104 37.5V43.5" stroke="black"/>
</svg>
