<svg width="93" height="349" viewBox="0 0 93 349" fill="none" xmlns="http://www.w3.org/2000/svg">
<rect x="32" y="14" width="49" height="323" fill="#CCBA71" stroke="black" stroke-width="6"/>
<rect x="59" y="16" width="20" height="317" fill="#F4D06C" stroke="black" stroke-width="6"/>
<rect x="2" y="28" width="52" height="292" fill="#D9D9D9" stroke="black" stroke-width="4"/>
<rect x="2" y="28" width="52" height="9" fill="#4D9F27" stroke="black" stroke-width="4"/>
<rect x="2" y="41" width="52" height="9" fill="#F34D4D" stroke="black" stroke-width="4"/>
<rect x="2" y="54" width="52" height="9" fill="#EAEE35" stroke="black" stroke-width="4"/>
<rect x="2" y="65" width="52" height="9" fill="#C70024" stroke="black" stroke-width="4"/>
<rect x="2" y="77" width="52" height="9" fill="#E8A467" stroke="black" stroke-width="4"/>
<rect x="2" y="90" width="52" height="9" fill="#80B3FF" stroke="black" stroke-width="4"/>
<rect x="2" y="102" width="52" height="9" fill="#AA36C6" stroke="black" stroke-width="4"/>
<rect x="2" y="114" width="52" height="9" fill="#FD5107" stroke="black" stroke-width="4"/>
<rect x="2" y="124" width="52" height="9" fill="#FE0000" stroke="black" stroke-width="4"/>
<rect x="2" y="137" width="52" height="10" fill="#002810" stroke="black" stroke-width="4"/>
<rect x="2" y="149" width="52" height="10" fill="#F8DC97" stroke="black" stroke-width="4"/>
<rect x="2" y="160" width="52" height="10" fill="black" stroke="black" stroke-width="4"/>
<rect x="2" y="172" width="52" height="10" fill="#00DFFD" stroke="black" stroke-width="4"/>
<rect x="2" y="184" width="52" height="10" fill="#2100EC" stroke="black" stroke-width="4"/>
<rect x="2" y="196" width="52" height="10" fill="#660031" stroke="black" stroke-width="4"/>
<rect x="2" y="210" width="52" height="10" fill="#00A02D" stroke="black" stroke-width="4"/>
<rect x="2" y="223" width="52" height="10" fill="#4F242F" stroke="black" stroke-width="4"/>
<rect x="2" y="237" width="52" height="11" fill="#7C969E" stroke="black" stroke-width="4"/>
<rect x="2" y="250" width="52" height="11" fill="#D9D9D9" stroke="black" stroke-width="4"/>
<rect x="2" y="262" width="52" height="12" fill="#F03030" stroke="black" stroke-width="4"/>
<rect x="2" y="277" width="52" height="12" fill="#45540A" stroke="black" stroke-width="4"/>
<rect x="2" y="290" width="52" height="13" fill="#22112F" stroke="black" stroke-width="4"/>
<rect x="2" y="305" width="52" height="13" fill="#BA6969" stroke="black" stroke-width="4"/>
<path d="M82.5 30.5H88C89.933 30.5 91.5 32.067 91.5 34V317C91.5 318.933 89.933 320.5 88 320.5H82.5V30.5Z" fill="#D9D9D9" stroke="black" stroke-width="3"/>
<path d="M70 2H76C77.6569 2 79 3.34315 79 5V9H67V5C67 3.34315 68.3431 2 70 2Z" fill="#D9D9D9" stroke="black" stroke-width="4"/>
<path d="M70 347H76C77.6569 347 79 345.657 79 344V340H67V344C67 345.657 68.3431 347 70 347Z" fill="#D9D9D9" stroke="black" stroke-width="4"/>
</svg>
