<svg width="70" height="40" viewBox="0 0 244 170" fill="none" xmlns="http://www.w3.org/2000/svg">
<path d="M93 3.5H200C203.59 3.5 206.5 6.41015 206.5 10V160C206.5 163.59 203.59 166.5 200 166.5H93C89.4102 166.5 86.5 163.59 86.5 160V10C86.5 6.41015 89.4101 3.5 93 3.5Z" fill="#F4D06C" stroke="black" stroke-width="7"/>
<rect x="64" y="34" width="12" height="21" transform="rotate(-90 64 34)" fill="black"/>
<rect x="49" y="28" width="2" height="18" transform="rotate(-90 49 28)" fill="black"/>
<rect x="16" y="28" width="2" height="33" transform="rotate(-90 16 28)" fill="black"/>
<rect x="64" y="59" width="12" height="21" transform="rotate(-90 64 59)" fill="black"/>
<rect x="49" y="53" width="2" height="18" transform="rotate(-90 49 53)" fill="black"/>
<rect x="64" y="88" width="12" height="21" transform="rotate(-90 64 88)" fill="black"/>
<rect x="49" y="82" width="2" height="18" transform="rotate(-90 49 82)" fill="black"/>
<rect x="64" y="115" width="12" height="21" transform="rotate(-90 64 115)" fill="black"/>
<rect x="49" y="109" width="2" height="18" transform="rotate(-90 49 109)" fill="black"/>
<rect x="64" y="141" width="12" height="21" transform="rotate(-90 64 141)" fill="black"/>
<rect x="206" y="34" width="12" height="21" transform="rotate(-90 206 34)" fill="black"/>
<rect x="206" y="59" width="12" height="21" transform="rotate(-90 206 59)" fill="black"/>
<rect x="206" y="88" width="12" height="21" transform="rotate(-90 206 88)" fill="black"/>
<rect x="206" y="115" width="12" height="21" transform="rotate(-90 206 115)" fill="black"/>
<rect x="206" y="141" width="12" height="21" transform="rotate(-90 206 141)" fill="black"/>
<rect x="49" y="135" width="2" height="18" transform="rotate(-90 49 135)" fill="black"/>
<rect x="226" y="28" width="2" height="18" transform="rotate(-90 226 28)" fill="black"/>
<rect x="226" y="53" width="2" height="18" transform="rotate(-90 226 53)" fill="black"/>
<rect x="226" y="82" width="2" height="18" transform="rotate(-90 226 82)" fill="black"/>
<rect x="226" y="109" width="2" height="18" transform="rotate(-90 226 109)" fill="black"/>
<rect x="226" y="135" width="2" height="18" transform="rotate(-90 226 135)" fill="black"/>
<rect x="103.5" y="19.5" width="85" height="131" fill="#F7E3A2" stroke="black" stroke-width="7"/>
<rect x="119" y="36" width="15" height="68" fill="#66CFEC" stroke="black" stroke-width="4"/>
<rect x="158" y="35" width="13" height="11" fill="#F77E6B" stroke="black" stroke-width="2"/>
<rect x="158" y="53" width="13" height="11" fill="#F77E6B" stroke="black" stroke-width="2"/>
<rect x="158" y="73" width="13" height="11" fill="#F77E6B" stroke="black" stroke-width="2"/>
<rect x="158" y="94" width="13" height="11" fill="#F77E6B" stroke="black" stroke-width="2"/>
<path d="M178.5 134.5C178.5 137.724 175.683 140.5 172 140.5C168.317 140.5 165.5 137.724 165.5 134.5C165.5 131.276 168.317 128.5 172 128.5C175.683 128.5 178.5 131.276 178.5 134.5Z" fill="#D9D9D9" stroke="black" stroke-width="3"/>
<circle cx="8" cy="27" r="7" fill="#D9D9D9" stroke="black" stroke-width="2"/>
<rect x="16" y="53" width="2" height="33" transform="rotate(-90 16 53)" fill="black"/>
<circle cx="8" cy="52" r="7" fill="#D9D9D9" stroke="black" stroke-width="2"/>
<rect x="16" y="82" width="2" height="33" transform="rotate(-90 16 82)" fill="black"/>
<circle cx="8" cy="81" r="7" fill="#D9D9D9" stroke="black" stroke-width="2"/>
<rect x="16" y="109" width="2" height="33" transform="rotate(-90 16 109)" fill="black"/>
<circle cx="8" cy="108" r="7" fill="#D9D9D9" stroke="black" stroke-width="2"/>
<rect x="16" y="135" width="2" height="33" transform="rotate(-90 16 135)" fill="black"/>
<circle cx="8" cy="134" r="7" fill="#D9D9D9" stroke="black" stroke-width="2"/>
</svg>
