<svg width="255" height="151" viewBox="0 0 255 151" fill="none" xmlns="http://www.w3.org/2000/svg">
<mask id="path-1-inside-1_13_771" fill="white">
<rect y="19" width="244" height="132" rx="1"/>
</mask>
<g filter="url(#filter0_iiii_13_771)">
<rect y="19" width="244" height="132" rx="1" fill="#3498C0"/>
</g>
<rect y="19" width="244" height="132" rx="1" stroke="black" stroke-width="8" mask="url(#path-1-inside-1_13_771)"/>
<rect x="9" y="76" width="225" height="73" fill="white" stroke="black" stroke-width="4"/>
<rect x="16.5" y="83.5" width="210" height="59" fill="#FCEA47" stroke="black" stroke-width="3"/>
<rect x="29.5" y="30.5" width="14" height="10" fill="#F4F76F" stroke="black" stroke-width="3"/>
<rect x="85.5" y="30.5" width="14" height="10" fill="#F4F76F" stroke="black" stroke-width="3"/>
<rect x="141.5" y="30.5" width="14" height="10" fill="#F4F76F" stroke="black" stroke-width="3"/>
<rect x="197.5" y="30.5" width="14" height="10" fill="#F4F76F" stroke="black" stroke-width="3"/>
<circle cx="36.5" cy="60.5" r="8" fill="#EAEE35"/>
<circle cx="36.5" cy="60.5" r="8" fill="#EAEE35"/>
<circle cx="36.5" cy="60.5" r="8" stroke="black" stroke-width="3"/>
<circle cx="205.5" cy="60.5" r="8" fill="#EAEE35"/>
<circle cx="205.5" cy="60.5" r="8" fill="#EAEE35"/>
<circle cx="205.5" cy="60.5" r="8" stroke="black" stroke-width="3"/>
<path d="M36.5 40.5V52" stroke="black" stroke-width="7"/>
<path d="M205.5 41V52" stroke="black" stroke-width="7"/>
<path d="M44.5 61H197" stroke="black" stroke-width="7"/>
<path d="M92.5 40.5V48.5V50.5H119H147.5H149.5V40.5" stroke="black" stroke-width="7"/>
<path d="M119.5 51V60.5V75.5" stroke="black" stroke-width="7"/>
<rect x="35" width="3" height="37" rx="1.5" fill="black"/>
<rect x="91" width="3" height="37" rx="1.5" fill="black"/>
<rect x="147" width="3" height="37" rx="1.5" fill="black"/>
<rect x="203" width="3" height="37" rx="1.5" fill="black"/>
<g filter="url(#filter1_i_13_771)">
<path d="M244 36L251 45.543V147H244V36Z" fill="#D9D9D9"/>
</g>
<path d="M245.613 34.8171L242 29.892V36V147V149H244H251H253V147V45.543V44.8881L252.613 44.3601L245.613 34.8171Z" stroke="black" stroke-width="4"/>
<rect x="247" y="52" width="2" height="19" rx="1" fill="black"/>
<rect x="247" y="52" width="2" height="19" rx="1" fill="black"/>
<rect x="247" y="52" width="2" height="19" rx="1" fill="black"/>
<rect x="247" y="52" width="2" height="19" rx="1" fill="black"/>
<rect x="247" y="76" width="2" height="19" rx="1" fill="black"/>
<rect x="247" y="76" width="2" height="19" rx="1" fill="black"/>
<rect x="247" y="76" width="2" height="19" rx="1" fill="black"/>
<rect x="247" y="76" width="2" height="19" rx="1" fill="black"/>
<rect x="247" y="103" width="2" height="19" rx="1" fill="black"/>
<rect x="247" y="103" width="2" height="19" rx="1" fill="black"/>
<rect x="247" y="103" width="2" height="19" rx="1" fill="black"/>
<rect x="247" y="103" width="2" height="19" rx="1" fill="black"/>
<rect x="247" y="128" width="2" height="19" rx="1" fill="black"/>
<rect x="247" y="128" width="2" height="19" rx="1" fill="black"/>
<rect x="247" y="128" width="2" height="19" rx="1" fill="black"/>
<rect x="247" y="128" width="2" height="19" rx="1" fill="black"/>
<path d="M76 85L102 141H90.5L64 85H76Z" fill="#FCFAFA" fill-opacity="0.7"/>
<path d="M88 85L115 141H108.5L82 85H88Z" fill="#FCFAFA" fill-opacity="0.7"/>
<defs>
<filter id="filter0_iiii_13_771" x="0" y="19" width="244" height="132" filterUnits="userSpaceOnUse" color-interpolation-filters="sRGB">
<feFlood flood-opacity="0" result="BackgroundImageFix"/>
<feBlend mode="normal" in="SourceGraphic" in2="BackgroundImageFix" result="shape"/>
<feColorMatrix in="SourceAlpha" type="matrix" values="0 0 0 0 0 0 0 0 0 0 0 0 0 0 0 0 0 0 127 0" result="hardAlpha"/>
<feOffset dy="7"/>
<feComposite in2="hardAlpha" operator="arithmetic" k2="-1" k3="1"/>
<feColorMatrix type="matrix" values="0 0 0 0 0 0 0 0 0 0 0 0 0 0 0 0 0 0 0.25 0"/>
<feBlend mode="normal" in2="shape" result="effect1_innerShadow_13_771"/>
<feColorMatrix in="SourceAlpha" type="matrix" values="0 0 0 0 0 0 0 0 0 0 0 0 0 0 0 0 0 0 127 0" result="hardAlpha"/>
<feOffset dx="-7"/>
<feComposite in2="hardAlpha" operator="arithmetic" k2="-1" k3="1"/>
<feColorMatrix type="matrix" values="0 0 0 0 0 0 0 0 0 0 0 0 0 0 0 0 0 0 0.25 0"/>
<feBlend mode="normal" in2="effect1_innerShadow_13_771" result="effect2_innerShadow_13_771"/>
<feColorMatrix in="SourceAlpha" type="matrix" values="0 0 0 0 0 0 0 0 0 0 0 0 0 0 0 0 0 0 127 0" result="hardAlpha"/>
<feOffset dy="-7"/>
<feComposite in2="hardAlpha" operator="arithmetic" k2="-1" k3="1"/>
<feColorMatrix type="matrix" values="0 0 0 0 0 0 0 0 0 0 0 0 0 0 0 0 0 0 0.25 0"/>
<feBlend mode="normal" in2="effect2_innerShadow_13_771" result="effect3_innerShadow_13_771"/>
<feColorMatrix in="SourceAlpha" type="matrix" values="0 0 0 0 0 0 0 0 0 0 0 0 0 0 0 0 0 0 127 0" result="hardAlpha"/>
<feOffset dx="7"/>
<feComposite in2="hardAlpha" operator="arithmetic" k2="-1" k3="1"/>
<feColorMatrix type="matrix" values="0 0 0 0 0 0 0 0 0 0 0 0 0 0 0 0 0 0 0.25 0"/>
<feBlend mode="normal" in2="effect3_innerShadow_13_771" result="effect4_innerShadow_13_771"/>
</filter>
<filter id="filter1_i_13_771" x="240" y="23.784" width="15" height="127.216" filterUnits="userSpaceOnUse" color-interpolation-filters="sRGB">
<feFlood flood-opacity="0" result="BackgroundImageFix"/>
<feBlend mode="normal" in="SourceGraphic" in2="BackgroundImageFix" result="shape"/>
<feColorMatrix in="SourceAlpha" type="matrix" values="0 0 0 0 0 0 0 0 0 0 0 0 0 0 0 0 0 0 127 0" result="hardAlpha"/>
<feOffset dx="6"/>
<feComposite in2="hardAlpha" operator="arithmetic" k2="-1" k3="1"/>
<feColorMatrix type="matrix" values="0 0 0 0 0 0 0 0 0 0 0 0 0 0 0 0 0 0 0.3 0"/>
<feBlend mode="normal" in2="shape" result="effect1_innerShadow_13_771"/>
</filter>
</defs>
</svg>
