<svg width="50" height="172" viewBox="0 0 171 172" fill="none" xmlns="http://www.w3.org/2000/svg">
<g filter="url(#filter0_i_17_918)">
<rect x="16" y="16" width="140" height="140" fill="#57A4FF"/>
</g>
<rect x="19" y="19" width="134" height="134" stroke="black" stroke-width="6"/>
<g filter="url(#filter1_i_17_918)">
<rect x="56" y="56" width="60" height="60" fill="#FFB655"/>
</g>
<rect x="59" y="59" width="54" height="54" stroke="black" stroke-width="6"/>
<rect x="78" y="26" width="10" height="8" fill="white"/>
<rect x="92" y="26" width="10" height="8" fill="white"/>
<rect x="101" y="69" width="5" height="4" fill="white"/>
<rect x="101" y="76" width="5" height="4" fill="white"/>
<rect x="101" y="82" width="5" height="24" fill="white"/>
<rect x="104" y="26" width="42" height="8" fill="white"/>
<rect width="8" height="4" transform="matrix(-1 0 0 1 111 139)" fill="white"/>
<rect width="8" height="4" transform="matrix(-1 0 0 1 99 139)" fill="white"/>
<rect width="35" height="4" transform="matrix(-1 0 0 1 89 139)" fill="white"/>
<g filter="url(#filter2_i_17_918)">
<rect x="130" y="49" width="16" height="14" fill="#C70024"/>
</g>
<rect x="132" y="51" width="12" height="10" stroke="black" stroke-width="4"/>
<g filter="url(#filter3_i_17_918)">
<rect x="130" y="66" width="16" height="14" fill="#C70024"/>
</g>
<rect x="132" y="68" width="12" height="10" stroke="black" stroke-width="4"/>
<rect x="138" y="88" width="6" height="30" fill="black"/>
<rect width="5" height="5" transform="matrix(1 0 0 -1 118 135)" fill="black"/>
<rect width="5" height="7" transform="matrix(1 0 0 -1 62 122)" fill="black"/>
<rect width="5" height="7" transform="matrix(1 0 0 -1 71 122)" fill="black"/>
<rect width="5" height="7" transform="matrix(1 0 0 -1 80 122)" fill="black"/>
<rect width="5" height="7" transform="matrix(1 0 0 -1 88 122)" fill="black"/>
<rect width="5" height="7" transform="matrix(1 0 0 -1 96 122)" fill="black"/>
<rect width="5" height="7" transform="matrix(1 0 0 -1 104 122)" fill="black"/>
<rect width="5" height="7" transform="matrix(1 0 0 -1 62 57)" fill="black"/>
<rect width="5" height="7" transform="matrix(1 0 0 -1 71 57)" fill="black"/>
<rect width="5" height="7" transform="matrix(1 0 0 -1 80 57)" fill="black"/>
<rect width="5" height="7" transform="matrix(1 0 0 -1 88 57)" fill="black"/>
<rect width="5" height="7" transform="matrix(1 0 0 -1 96 57)" fill="black"/>
<rect width="5" height="7" transform="matrix(1 0 0 -1 104 57)" fill="black"/>
<rect width="5" height="7" transform="matrix(0 -1 -1 0 122 109)" fill="black"/>
<rect width="5" height="7" transform="matrix(0 -1 -1 0 122 100)" fill="black"/>
<rect width="5" height="7" transform="matrix(0 -1 -1 0 122 91)" fill="black"/>
<rect width="5" height="7" transform="matrix(0 -1 -1 0 122 83)" fill="black"/>
<rect width="5" height="7" transform="matrix(0 -1 -1 0 122 75)" fill="black"/>
<rect width="5" height="7" transform="matrix(0 -1 -1 0 122 67)" fill="black"/>
<rect width="5" height="7" transform="matrix(0 -1 -1 0 57 109)" fill="black"/>
<rect width="5" height="7" transform="matrix(0 -1 -1 0 57 100)" fill="black"/>
<rect width="5" height="7" transform="matrix(0 -1 -1 0 57 91)" fill="black"/>
<rect width="5" height="7" transform="matrix(0 -1 -1 0 57 83)" fill="black"/>
<rect width="5" height="7" transform="matrix(0 -1 -1 0 57 75)" fill="black"/>
<rect width="5" height="7" transform="matrix(0 -1 -1 0 57 67)" fill="black"/>
<rect width="5" height="5" transform="matrix(1 0 0 -1 124 135)" fill="black"/>
<rect width="5" height="5" transform="matrix(1 0 0 -1 130 135)" fill="black"/>
<rect width="5" height="5" transform="matrix(1 0 0 -1 67 70)" fill="black"/>
<rect width="15" height="5" transform="matrix(1 0 0 -1 67 107)" fill="black"/>
<rect width="5" height="5" transform="matrix(1 0 0 -1 73 70)" fill="black"/>
<rect width="5" height="5" transform="matrix(1 0 0 -1 79 70)" fill="black"/>
<rect width="5" height="5" transform="matrix(1 0 0 -1 136 135)" fill="black"/>
<rect width="5" height="5" transform="matrix(1 0 0 -1 142 135)" fill="black"/>
<rect width="5" height="5" transform="matrix(1 0 0 -1 142 141)" fill="black"/>
<rect width="5" height="5" transform="matrix(1 0 0 -1 136 141)" fill="black"/>
<rect width="5" height="5" transform="matrix(1 0 0 -1 130 141)" fill="black"/>
<rect width="5" height="5" transform="matrix(1 0 0 -1 124 141)" fill="black"/>
<rect width="5" height="5" transform="matrix(1 0 0 -1 118 141)" fill="black"/>
<g filter="url(#filter4_i_17_918)">
<rect y="26" width="20" height="12" fill="#FFE477"/>
</g>
<rect x="2" y="28" width="16" height="8" stroke="black" stroke-width="4"/>
<g filter="url(#filter5_i_17_918)">
<rect y="44" width="20" height="12" fill="#FFE477"/>
</g>
<rect x="2" y="46" width="16" height="8" stroke="black" stroke-width="4"/>
<g filter="url(#filter6_i_17_918)">
<rect y="63" width="20" height="12" fill="#FFE477"/>
</g>
<rect x="2" y="65" width="16" height="8" stroke="black" stroke-width="4"/>
<g filter="url(#filter7_i_17_918)">
<rect y="82" width="20" height="12" fill="#FFE477"/>
</g>
<rect x="2" y="84" width="16" height="8" stroke="black" stroke-width="4"/>
<g filter="url(#filter8_i_17_918)">
<rect y="100" width="20" height="12" fill="#FFE477"/>
</g>
<rect x="2" y="102" width="16" height="8" stroke="black" stroke-width="4"/>
<g filter="url(#filter9_i_17_918)">
<rect y="118" width="20" height="12" fill="#FFE477"/>
</g>
<rect x="2" y="120" width="16" height="8" stroke="black" stroke-width="4"/>
<g filter="url(#filter10_i_17_918)">
<rect y="137" width="20" height="12" fill="#FFE477"/>
</g>
<rect x="2" y="139" width="16" height="8" stroke="black" stroke-width="4"/>
<g filter="url(#filter11_i_17_918)">
<rect x="151" y="26" width="20" height="12" fill="#FFE477"/>
</g>
<rect x="153" y="28" width="16" height="8" stroke="black" stroke-width="4"/>
<g filter="url(#filter12_i_17_918)">
<rect x="151" y="44" width="20" height="12" fill="#FFE477"/>
</g>
<rect x="153" y="46" width="16" height="8" stroke="black" stroke-width="4"/>
<g filter="url(#filter13_i_17_918)">
<rect x="151" y="63" width="20" height="12" fill="#FFE477"/>
</g>
<rect x="153" y="65" width="16" height="8" stroke="black" stroke-width="4"/>
<g filter="url(#filter14_i_17_918)">
<rect x="151" y="82" width="20" height="12" fill="#FFE477"/>
</g>
<rect x="153" y="84" width="16" height="8" stroke="black" stroke-width="4"/>
<g filter="url(#filter15_i_17_918)">
<rect x="151" y="100" width="20" height="12" fill="#FFE477"/>
</g>
<rect x="153" y="102" width="16" height="8" stroke="black" stroke-width="4"/>
<g filter="url(#filter16_i_17_918)">
<rect x="151" y="118" width="20" height="12" fill="#FFE477"/>
</g>
<rect x="153" y="120" width="16" height="8" stroke="black" stroke-width="4"/>
<g filter="url(#filter17_i_17_918)">
<rect x="151" y="137" width="20" height="12" fill="#FFE477"/>
</g>
<rect x="153" y="139" width="16" height="8" stroke="black" stroke-width="4"/>
<g filter="url(#filter18_i_17_918)">
<rect x="25.5" y="20.5" width="20" height="12" transform="rotate(-90 25.5 20.5)" fill="#FFE477"/>
</g>
<rect x="27.5" y="18.5" width="16" height="8" transform="rotate(-90 27.5 18.5)" stroke="black" stroke-width="4"/>
<g filter="url(#filter19_i_17_918)">
<rect x="43.5" y="20.5" width="20" height="12" transform="rotate(-90 43.5 20.5)" fill="#FFE477"/>
</g>
<rect x="45.5" y="18.5" width="16" height="8" transform="rotate(-90 45.5 18.5)" stroke="black" stroke-width="4"/>
<g filter="url(#filter20_i_17_918)">
<rect x="62.5" y="20.5" width="20" height="12" transform="rotate(-90 62.5 20.5)" fill="#FFE477"/>
</g>
<rect x="64.5" y="18.5" width="16" height="8" transform="rotate(-90 64.5 18.5)" stroke="black" stroke-width="4"/>
<g filter="url(#filter21_i_17_918)">
<rect x="81.5" y="20.5" width="20" height="12" transform="rotate(-90 81.5 20.5)" fill="#FFE477"/>
</g>
<rect x="83.5" y="18.5" width="16" height="8" transform="rotate(-90 83.5 18.5)" stroke="black" stroke-width="4"/>
<g filter="url(#filter22_i_17_918)">
<rect x="99.5" y="20.5" width="20" height="12" transform="rotate(-90 99.5 20.5)" fill="#FFE477"/>
</g>
<rect x="101.5" y="18.5" width="16" height="8" transform="rotate(-90 101.5 18.5)" stroke="black" stroke-width="4"/>
<g filter="url(#filter23_i_17_918)">
<rect x="117.5" y="20.5" width="20" height="12" transform="rotate(-90 117.5 20.5)" fill="#FFE477"/>
</g>
<rect x="119.5" y="18.5" width="16" height="8" transform="rotate(-90 119.5 18.5)" stroke="black" stroke-width="4"/>
<g filter="url(#filter24_i_17_918)">
<rect x="136.5" y="20.5" width="20" height="12" transform="rotate(-90 136.5 20.5)" fill="#FFE477"/>
</g>
<rect x="138.5" y="18.5" width="16" height="8" transform="rotate(-90 138.5 18.5)" stroke="black" stroke-width="4"/>
<g filter="url(#filter25_i_17_918)">
<rect x="25.5" y="171.5" width="20" height="12" transform="rotate(-90 25.5 171.5)" fill="#FFE477"/>
</g>
<rect x="27.5" y="169.5" width="16" height="8" transform="rotate(-90 27.5 169.5)" stroke="black" stroke-width="4"/>
<g filter="url(#filter26_i_17_918)">
<rect x="43.5" y="171.5" width="20" height="12" transform="rotate(-90 43.5 171.5)" fill="#FFE477"/>
</g>
<rect x="45.5" y="169.5" width="16" height="8" transform="rotate(-90 45.5 169.5)" stroke="black" stroke-width="4"/>
<g filter="url(#filter27_i_17_918)">
<rect x="62.5" y="171.5" width="20" height="12" transform="rotate(-90 62.5 171.5)" fill="#FFE477"/>
</g>
<rect x="64.5" y="169.5" width="16" height="8" transform="rotate(-90 64.5 169.5)" stroke="black" stroke-width="4"/>
<g filter="url(#filter28_i_17_918)">
<rect x="81.5" y="171.5" width="20" height="12" transform="rotate(-90 81.5 171.5)" fill="#FFE477"/>
</g>
<rect x="83.5" y="169.5" width="16" height="8" transform="rotate(-90 83.5 169.5)" stroke="black" stroke-width="4"/>
<g filter="url(#filter29_i_17_918)">
<rect x="99.5" y="171.5" width="20" height="12" transform="rotate(-90 99.5 171.5)" fill="#FFE477"/>
</g>
<rect x="101.5" y="169.5" width="16" height="8" transform="rotate(-90 101.5 169.5)" stroke="black" stroke-width="4"/>
<g filter="url(#filter30_i_17_918)">
<rect x="117.5" y="171.5" width="20" height="12" transform="rotate(-90 117.5 171.5)" fill="#FFE477"/>
</g>
<rect x="119.5" y="169.5" width="16" height="8" transform="rotate(-90 119.5 169.5)" stroke="black" stroke-width="4"/>
<g filter="url(#filter31_i_17_918)">
<rect x="136.5" y="171.5" width="20" height="12" transform="rotate(-90 136.5 171.5)" fill="#FFE477"/>
</g>
<rect x="138.5" y="169.5" width="16" height="8" transform="rotate(-90 138.5 169.5)" stroke="black" stroke-width="4"/>
<path d="M24.4974 89.6667L46.0026 89.8333" stroke="black" stroke-width="4"/>
<path d="M24 107C24 107 31.009 107 35.5 107" stroke="black" stroke-width="4"/>
<path d="M24 69C24 69 31.009 69 35.5 69" stroke="black" stroke-width="4"/>
<path d="M24 126C24 126 35.58 126 43 126" stroke="black" stroke-width="4"/>
<path d="M24 50C24 50 35.58 50 43 50" stroke="black" stroke-width="4"/>
<path d="M35.6718 109.004L35.8284 94.996" stroke="black" stroke-width="4"/>
<path d="M34.6718 81.004L34.8284 66.996" stroke="black" stroke-width="4"/>
<path d="M41.7628 128.003L41.7372 104.997" stroke="black" stroke-width="4"/>
<path d="M41.0257 71.0027L41 47.9973" stroke="black" stroke-width="4"/>
<path d="M36 97H46" stroke="black" stroke-width="4"/>
<path d="M36 79H46" stroke="black" stroke-width="4"/>
<path d="M40.5 107H46" stroke="black" stroke-width="4"/>
<path d="M39.5 69H45" stroke="black" stroke-width="4"/>
<defs>
<filter id="filter0_i_17_918" x="16" y="16" width="140" height="140" filterUnits="userSpaceOnUse" color-interpolation-filters="sRGB">
<feFlood flood-opacity="0" result="BackgroundImageFix"/>
<feBlend mode="normal" in="SourceGraphic" in2="BackgroundImageFix" result="shape"/>
<feColorMatrix in="SourceAlpha" type="matrix" values="0 0 0 0 0 0 0 0 0 0 0 0 0 0 0 0 0 0 127 0" result="hardAlpha"/>
<feOffset dx="20"/>
<feComposite in2="hardAlpha" operator="arithmetic" k2="-1" k3="1"/>
<feColorMatrix type="matrix" values="0 0 0 0 0 0 0 0 0 0 0 0 0 0 0 0 0 0 0.25 0"/>
<feBlend mode="normal" in2="shape" result="effect1_innerShadow_17_918"/>
</filter>
<filter id="filter1_i_17_918" x="56" y="56" width="60" height="60" filterUnits="userSpaceOnUse" color-interpolation-filters="sRGB">
<feFlood flood-opacity="0" result="BackgroundImageFix"/>
<feBlend mode="normal" in="SourceGraphic" in2="BackgroundImageFix" result="shape"/>
<feColorMatrix in="SourceAlpha" type="matrix" values="0 0 0 0 0 0 0 0 0 0 0 0 0 0 0 0 0 0 127 0" result="hardAlpha"/>
<feOffset dx="10"/>
<feComposite in2="hardAlpha" operator="arithmetic" k2="-1" k3="1"/>
<feColorMatrix type="matrix" values="0 0 0 0 0 0 0 0 0 0 0 0 0 0 0 0 0 0 0.25 0"/>
<feBlend mode="normal" in2="shape" result="effect1_innerShadow_17_918"/>
</filter>
<filter id="filter2_i_17_918" x="130" y="49" width="16" height="14" filterUnits="userSpaceOnUse" color-interpolation-filters="sRGB">
<feFlood flood-opacity="0" result="BackgroundImageFix"/>
<feBlend mode="normal" in="SourceGraphic" in2="BackgroundImageFix" result="shape"/>
<feColorMatrix in="SourceAlpha" type="matrix" values="0 0 0 0 0 0 0 0 0 0 0 0 0 0 0 0 0 0 127 0" result="hardAlpha"/>
<feOffset dx="-7"/>
<feComposite in2="hardAlpha" operator="arithmetic" k2="-1" k3="1"/>
<feColorMatrix type="matrix" values="0 0 0 0 0 0 0 0 0 0 0 0 0 0 0 0 0 0 0.25 0"/>
<feBlend mode="normal" in2="shape" result="effect1_innerShadow_17_918"/>
</filter>
<filter id="filter3_i_17_918" x="130" y="66" width="16" height="14" filterUnits="userSpaceOnUse" color-interpolation-filters="sRGB">
<feFlood flood-opacity="0" result="BackgroundImageFix"/>
<feBlend mode="normal" in="SourceGraphic" in2="BackgroundImageFix" result="shape"/>
<feColorMatrix in="SourceAlpha" type="matrix" values="0 0 0 0 0 0 0 0 0 0 0 0 0 0 0 0 0 0 127 0" result="hardAlpha"/>
<feOffset dx="-7"/>
<feComposite in2="hardAlpha" operator="arithmetic" k2="-1" k3="1"/>
<feColorMatrix type="matrix" values="0 0 0 0 0 0 0 0 0 0 0 0 0 0 0 0 0 0 0.25 0"/>
<feBlend mode="normal" in2="shape" result="effect1_innerShadow_17_918"/>
</filter>
<filter id="filter4_i_17_918" x="0" y="26" width="20" height="12" filterUnits="userSpaceOnUse" color-interpolation-filters="sRGB">
<feFlood flood-opacity="0" result="BackgroundImageFix"/>
<feBlend mode="normal" in="SourceGraphic" in2="BackgroundImageFix" result="shape"/>
<feColorMatrix in="SourceAlpha" type="matrix" values="0 0 0 0 0 0 0 0 0 0 0 0 0 0 0 0 0 0 127 0" result="hardAlpha"/>
<feOffset dx="9"/>
<feComposite in2="hardAlpha" operator="arithmetic" k2="-1" k3="1"/>
<feColorMatrix type="matrix" values="0 0 0 0 0 0 0 0 0 0 0 0 0 0 0 0 0 0 0.25 0"/>
<feBlend mode="normal" in2="shape" result="effect1_innerShadow_17_918"/>
</filter>
<filter id="filter5_i_17_918" x="0" y="44" width="20" height="12" filterUnits="userSpaceOnUse" color-interpolation-filters="sRGB">
<feFlood flood-opacity="0" result="BackgroundImageFix"/>
<feBlend mode="normal" in="SourceGraphic" in2="BackgroundImageFix" result="shape"/>
<feColorMatrix in="SourceAlpha" type="matrix" values="0 0 0 0 0 0 0 0 0 0 0 0 0 0 0 0 0 0 127 0" result="hardAlpha"/>
<feOffset dx="9"/>
<feComposite in2="hardAlpha" operator="arithmetic" k2="-1" k3="1"/>
<feColorMatrix type="matrix" values="0 0 0 0 0 0 0 0 0 0 0 0 0 0 0 0 0 0 0.25 0"/>
<feBlend mode="normal" in2="shape" result="effect1_innerShadow_17_918"/>
</filter>
<filter id="filter6_i_17_918" x="0" y="63" width="20" height="12" filterUnits="userSpaceOnUse" color-interpolation-filters="sRGB">
<feFlood flood-opacity="0" result="BackgroundImageFix"/>
<feBlend mode="normal" in="SourceGraphic" in2="BackgroundImageFix" result="shape"/>
<feColorMatrix in="SourceAlpha" type="matrix" values="0 0 0 0 0 0 0 0 0 0 0 0 0 0 0 0 0 0 127 0" result="hardAlpha"/>
<feOffset dx="9"/>
<feComposite in2="hardAlpha" operator="arithmetic" k2="-1" k3="1"/>
<feColorMatrix type="matrix" values="0 0 0 0 0 0 0 0 0 0 0 0 0 0 0 0 0 0 0.25 0"/>
<feBlend mode="normal" in2="shape" result="effect1_innerShadow_17_918"/>
</filter>
<filter id="filter7_i_17_918" x="0" y="82" width="20" height="12" filterUnits="userSpaceOnUse" color-interpolation-filters="sRGB">
<feFlood flood-opacity="0" result="BackgroundImageFix"/>
<feBlend mode="normal" in="SourceGraphic" in2="BackgroundImageFix" result="shape"/>
<feColorMatrix in="SourceAlpha" type="matrix" values="0 0 0 0 0 0 0 0 0 0 0 0 0 0 0 0 0 0 127 0" result="hardAlpha"/>
<feOffset dx="9"/>
<feComposite in2="hardAlpha" operator="arithmetic" k2="-1" k3="1"/>
<feColorMatrix type="matrix" values="0 0 0 0 0 0 0 0 0 0 0 0 0 0 0 0 0 0 0.25 0"/>
<feBlend mode="normal" in2="shape" result="effect1_innerShadow_17_918"/>
</filter>
<filter id="filter8_i_17_918" x="0" y="100" width="20" height="12" filterUnits="userSpaceOnUse" color-interpolation-filters="sRGB">
<feFlood flood-opacity="0" result="BackgroundImageFix"/>
<feBlend mode="normal" in="SourceGraphic" in2="BackgroundImageFix" result="shape"/>
<feColorMatrix in="SourceAlpha" type="matrix" values="0 0 0 0 0 0 0 0 0 0 0 0 0 0 0 0 0 0 127 0" result="hardAlpha"/>
<feOffset dx="9"/>
<feComposite in2="hardAlpha" operator="arithmetic" k2="-1" k3="1"/>
<feColorMatrix type="matrix" values="0 0 0 0 0 0 0 0 0 0 0 0 0 0 0 0 0 0 0.25 0"/>
<feBlend mode="normal" in2="shape" result="effect1_innerShadow_17_918"/>
</filter>
<filter id="filter9_i_17_918" x="0" y="118" width="20" height="12" filterUnits="userSpaceOnUse" color-interpolation-filters="sRGB">
<feFlood flood-opacity="0" result="BackgroundImageFix"/>
<feBlend mode="normal" in="SourceGraphic" in2="BackgroundImageFix" result="shape"/>
<feColorMatrix in="SourceAlpha" type="matrix" values="0 0 0 0 0 0 0 0 0 0 0 0 0 0 0 0 0 0 127 0" result="hardAlpha"/>
<feOffset dx="9"/>
<feComposite in2="hardAlpha" operator="arithmetic" k2="-1" k3="1"/>
<feColorMatrix type="matrix" values="0 0 0 0 0 0 0 0 0 0 0 0 0 0 0 0 0 0 0.25 0"/>
<feBlend mode="normal" in2="shape" result="effect1_innerShadow_17_918"/>
</filter>
<filter id="filter10_i_17_918" x="0" y="137" width="20" height="12" filterUnits="userSpaceOnUse" color-interpolation-filters="sRGB">
<feFlood flood-opacity="0" result="BackgroundImageFix"/>
<feBlend mode="normal" in="SourceGraphic" in2="BackgroundImageFix" result="shape"/>
<feColorMatrix in="SourceAlpha" type="matrix" values="0 0 0 0 0 0 0 0 0 0 0 0 0 0 0 0 0 0 127 0" result="hardAlpha"/>
<feOffset dx="9"/>
<feComposite in2="hardAlpha" operator="arithmetic" k2="-1" k3="1"/>
<feColorMatrix type="matrix" values="0 0 0 0 0 0 0 0 0 0 0 0 0 0 0 0 0 0 0.25 0"/>
<feBlend mode="normal" in2="shape" result="effect1_innerShadow_17_918"/>
</filter>
<filter id="filter11_i_17_918" x="151" y="26" width="20" height="12" filterUnits="userSpaceOnUse" color-interpolation-filters="sRGB">
<feFlood flood-opacity="0" result="BackgroundImageFix"/>
<feBlend mode="normal" in="SourceGraphic" in2="BackgroundImageFix" result="shape"/>
<feColorMatrix in="SourceAlpha" type="matrix" values="0 0 0 0 0 0 0 0 0 0 0 0 0 0 0 0 0 0 127 0" result="hardAlpha"/>
<feOffset dx="9"/>
<feComposite in2="hardAlpha" operator="arithmetic" k2="-1" k3="1"/>
<feColorMatrix type="matrix" values="0 0 0 0 0 0 0 0 0 0 0 0 0 0 0 0 0 0 0.25 0"/>
<feBlend mode="normal" in2="shape" result="effect1_innerShadow_17_918"/>
</filter>
<filter id="filter12_i_17_918" x="151" y="44" width="20" height="12" filterUnits="userSpaceOnUse" color-interpolation-filters="sRGB">
<feFlood flood-opacity="0" result="BackgroundImageFix"/>
<feBlend mode="normal" in="SourceGraphic" in2="BackgroundImageFix" result="shape"/>
<feColorMatrix in="SourceAlpha" type="matrix" values="0 0 0 0 0 0 0 0 0 0 0 0 0 0 0 0 0 0 127 0" result="hardAlpha"/>
<feOffset dx="9"/>
<feComposite in2="hardAlpha" operator="arithmetic" k2="-1" k3="1"/>
<feColorMatrix type="matrix" values="0 0 0 0 0 0 0 0 0 0 0 0 0 0 0 0 0 0 0.25 0"/>
<feBlend mode="normal" in2="shape" result="effect1_innerShadow_17_918"/>
</filter>
<filter id="filter13_i_17_918" x="151" y="63" width="20" height="12" filterUnits="userSpaceOnUse" color-interpolation-filters="sRGB">
<feFlood flood-opacity="0" result="BackgroundImageFix"/>
<feBlend mode="normal" in="SourceGraphic" in2="BackgroundImageFix" result="shape"/>
<feColorMatrix in="SourceAlpha" type="matrix" values="0 0 0 0 0 0 0 0 0 0 0 0 0 0 0 0 0 0 127 0" result="hardAlpha"/>
<feOffset dx="9"/>
<feComposite in2="hardAlpha" operator="arithmetic" k2="-1" k3="1"/>
<feColorMatrix type="matrix" values="0 0 0 0 0 0 0 0 0 0 0 0 0 0 0 0 0 0 0.25 0"/>
<feBlend mode="normal" in2="shape" result="effect1_innerShadow_17_918"/>
</filter>
<filter id="filter14_i_17_918" x="151" y="82" width="20" height="12" filterUnits="userSpaceOnUse" color-interpolation-filters="sRGB">
<feFlood flood-opacity="0" result="BackgroundImageFix"/>
<feBlend mode="normal" in="SourceGraphic" in2="BackgroundImageFix" result="shape"/>
<feColorMatrix in="SourceAlpha" type="matrix" values="0 0 0 0 0 0 0 0 0 0 0 0 0 0 0 0 0 0 127 0" result="hardAlpha"/>
<feOffset dx="9"/>
<feComposite in2="hardAlpha" operator="arithmetic" k2="-1" k3="1"/>
<feColorMatrix type="matrix" values="0 0 0 0 0 0 0 0 0 0 0 0 0 0 0 0 0 0 0.25 0"/>
<feBlend mode="normal" in2="shape" result="effect1_innerShadow_17_918"/>
</filter>
<filter id="filter15_i_17_918" x="151" y="100" width="20" height="12" filterUnits="userSpaceOnUse" color-interpolation-filters="sRGB">
<feFlood flood-opacity="0" result="BackgroundImageFix"/>
<feBlend mode="normal" in="SourceGraphic" in2="BackgroundImageFix" result="shape"/>
<feColorMatrix in="SourceAlpha" type="matrix" values="0 0 0 0 0 0 0 0 0 0 0 0 0 0 0 0 0 0 127 0" result="hardAlpha"/>
<feOffset dx="9"/>
<feComposite in2="hardAlpha" operator="arithmetic" k2="-1" k3="1"/>
<feColorMatrix type="matrix" values="0 0 0 0 0 0 0 0 0 0 0 0 0 0 0 0 0 0 0.25 0"/>
<feBlend mode="normal" in2="shape" result="effect1_innerShadow_17_918"/>
</filter>
<filter id="filter16_i_17_918" x="151" y="118" width="20" height="12" filterUnits="userSpaceOnUse" color-interpolation-filters="sRGB">
<feFlood flood-opacity="0" result="BackgroundImageFix"/>
<feBlend mode="normal" in="SourceGraphic" in2="BackgroundImageFix" result="shape"/>
<feColorMatrix in="SourceAlpha" type="matrix" values="0 0 0 0 0 0 0 0 0 0 0 0 0 0 0 0 0 0 127 0" result="hardAlpha"/>
<feOffset dx="9"/>
<feComposite in2="hardAlpha" operator="arithmetic" k2="-1" k3="1"/>
<feColorMatrix type="matrix" values="0 0 0 0 0 0 0 0 0 0 0 0 0 0 0 0 0 0 0.25 0"/>
<feBlend mode="normal" in2="shape" result="effect1_innerShadow_17_918"/>
</filter>
<filter id="filter17_i_17_918" x="151" y="137" width="20" height="12" filterUnits="userSpaceOnUse" color-interpolation-filters="sRGB">
<feFlood flood-opacity="0" result="BackgroundImageFix"/>
<feBlend mode="normal" in="SourceGraphic" in2="BackgroundImageFix" result="shape"/>
<feColorMatrix in="SourceAlpha" type="matrix" values="0 0 0 0 0 0 0 0 0 0 0 0 0 0 0 0 0 0 127 0" result="hardAlpha"/>
<feOffset dx="9"/>
<feComposite in2="hardAlpha" operator="arithmetic" k2="-1" k3="1"/>
<feColorMatrix type="matrix" values="0 0 0 0 0 0 0 0 0 0 0 0 0 0 0 0 0 0 0.25 0"/>
<feBlend mode="normal" in2="shape" result="effect1_innerShadow_17_918"/>
</filter>
<filter id="filter18_i_17_918" x="25.5" y="0.5" width="12" height="20" filterUnits="userSpaceOnUse" color-interpolation-filters="sRGB">
<feFlood flood-opacity="0" result="BackgroundImageFix"/>
<feBlend mode="normal" in="SourceGraphic" in2="BackgroundImageFix" result="shape"/>
<feColorMatrix in="SourceAlpha" type="matrix" values="0 0 0 0 0 0 0 0 0 0 0 0 0 0 0 0 0 0 127 0" result="hardAlpha"/>
<feOffset dx="9"/>
<feComposite in2="hardAlpha" operator="arithmetic" k2="-1" k3="1"/>
<feColorMatrix type="matrix" values="0 0 0 0 0 0 0 0 0 0 0 0 0 0 0 0 0 0 0.25 0"/>
<feBlend mode="normal" in2="shape" result="effect1_innerShadow_17_918"/>
</filter>
<filter id="filter19_i_17_918" x="43.5" y="0.5" width="12" height="20" filterUnits="userSpaceOnUse" color-interpolation-filters="sRGB">
<feFlood flood-opacity="0" result="BackgroundImageFix"/>
<feBlend mode="normal" in="SourceGraphic" in2="BackgroundImageFix" result="shape"/>
<feColorMatrix in="SourceAlpha" type="matrix" values="0 0 0 0 0 0 0 0 0 0 0 0 0 0 0 0 0 0 127 0" result="hardAlpha"/>
<feOffset dx="9"/>
<feComposite in2="hardAlpha" operator="arithmetic" k2="-1" k3="1"/>
<feColorMatrix type="matrix" values="0 0 0 0 0 0 0 0 0 0 0 0 0 0 0 0 0 0 0.25 0"/>
<feBlend mode="normal" in2="shape" result="effect1_innerShadow_17_918"/>
</filter>
<filter id="filter20_i_17_918" x="62.5" y="0.5" width="12" height="20" filterUnits="userSpaceOnUse" color-interpolation-filters="sRGB">
<feFlood flood-opacity="0" result="BackgroundImageFix"/>
<feBlend mode="normal" in="SourceGraphic" in2="BackgroundImageFix" result="shape"/>
<feColorMatrix in="SourceAlpha" type="matrix" values="0 0 0 0 0 0 0 0 0 0 0 0 0 0 0 0 0 0 127 0" result="hardAlpha"/>
<feOffset dx="9"/>
<feComposite in2="hardAlpha" operator="arithmetic" k2="-1" k3="1"/>
<feColorMatrix type="matrix" values="0 0 0 0 0 0 0 0 0 0 0 0 0 0 0 0 0 0 0.25 0"/>
<feBlend mode="normal" in2="shape" result="effect1_innerShadow_17_918"/>
</filter>
<filter id="filter21_i_17_918" x="81.5" y="0.5" width="12" height="20" filterUnits="userSpaceOnUse" color-interpolation-filters="sRGB">
<feFlood flood-opacity="0" result="BackgroundImageFix"/>
<feBlend mode="normal" in="SourceGraphic" in2="BackgroundImageFix" result="shape"/>
<feColorMatrix in="SourceAlpha" type="matrix" values="0 0 0 0 0 0 0 0 0 0 0 0 0 0 0 0 0 0 127 0" result="hardAlpha"/>
<feOffset dx="9"/>
<feComposite in2="hardAlpha" operator="arithmetic" k2="-1" k3="1"/>
<feColorMatrix type="matrix" values="0 0 0 0 0 0 0 0 0 0 0 0 0 0 0 0 0 0 0.25 0"/>
<feBlend mode="normal" in2="shape" result="effect1_innerShadow_17_918"/>
</filter>
<filter id="filter22_i_17_918" x="99.5" y="0.5" width="12" height="20" filterUnits="userSpaceOnUse" color-interpolation-filters="sRGB">
<feFlood flood-opacity="0" result="BackgroundImageFix"/>
<feBlend mode="normal" in="SourceGraphic" in2="BackgroundImageFix" result="shape"/>
<feColorMatrix in="SourceAlpha" type="matrix" values="0 0 0 0 0 0 0 0 0 0 0 0 0 0 0 0 0 0 127 0" result="hardAlpha"/>
<feOffset dx="9"/>
<feComposite in2="hardAlpha" operator="arithmetic" k2="-1" k3="1"/>
<feColorMatrix type="matrix" values="0 0 0 0 0 0 0 0 0 0 0 0 0 0 0 0 0 0 0.25 0"/>
<feBlend mode="normal" in2="shape" result="effect1_innerShadow_17_918"/>
</filter>
<filter id="filter23_i_17_918" x="117.5" y="0.5" width="12" height="20" filterUnits="userSpaceOnUse" color-interpolation-filters="sRGB">
<feFlood flood-opacity="0" result="BackgroundImageFix"/>
<feBlend mode="normal" in="SourceGraphic" in2="BackgroundImageFix" result="shape"/>
<feColorMatrix in="SourceAlpha" type="matrix" values="0 0 0 0 0 0 0 0 0 0 0 0 0 0 0 0 0 0 127 0" result="hardAlpha"/>
<feOffset dx="9"/>
<feComposite in2="hardAlpha" operator="arithmetic" k2="-1" k3="1"/>
<feColorMatrix type="matrix" values="0 0 0 0 0 0 0 0 0 0 0 0 0 0 0 0 0 0 0.25 0"/>
<feBlend mode="normal" in2="shape" result="effect1_innerShadow_17_918"/>
</filter>
<filter id="filter24_i_17_918" x="136.5" y="0.5" width="12" height="20" filterUnits="userSpaceOnUse" color-interpolation-filters="sRGB">
<feFlood flood-opacity="0" result="BackgroundImageFix"/>
<feBlend mode="normal" in="SourceGraphic" in2="BackgroundImageFix" result="shape"/>
<feColorMatrix in="SourceAlpha" type="matrix" values="0 0 0 0 0 0 0 0 0 0 0 0 0 0 0 0 0 0 127 0" result="hardAlpha"/>
<feOffset dx="9"/>
<feComposite in2="hardAlpha" operator="arithmetic" k2="-1" k3="1"/>
<feColorMatrix type="matrix" values="0 0 0 0 0 0 0 0 0 0 0 0 0 0 0 0 0 0 0.25 0"/>
<feBlend mode="normal" in2="shape" result="effect1_innerShadow_17_918"/>
</filter>
<filter id="filter25_i_17_918" x="25.5" y="151.5" width="12" height="20" filterUnits="userSpaceOnUse" color-interpolation-filters="sRGB">
<feFlood flood-opacity="0" result="BackgroundImageFix"/>
<feBlend mode="normal" in="SourceGraphic" in2="BackgroundImageFix" result="shape"/>
<feColorMatrix in="SourceAlpha" type="matrix" values="0 0 0 0 0 0 0 0 0 0 0 0 0 0 0 0 0 0 127 0" result="hardAlpha"/>
<feOffset dx="9"/>
<feComposite in2="hardAlpha" operator="arithmetic" k2="-1" k3="1"/>
<feColorMatrix type="matrix" values="0 0 0 0 0 0 0 0 0 0 0 0 0 0 0 0 0 0 0.25 0"/>
<feBlend mode="normal" in2="shape" result="effect1_innerShadow_17_918"/>
</filter>
<filter id="filter26_i_17_918" x="43.5" y="151.5" width="12" height="20" filterUnits="userSpaceOnUse" color-interpolation-filters="sRGB">
<feFlood flood-opacity="0" result="BackgroundImageFix"/>
<feBlend mode="normal" in="SourceGraphic" in2="BackgroundImageFix" result="shape"/>
<feColorMatrix in="SourceAlpha" type="matrix" values="0 0 0 0 0 0 0 0 0 0 0 0 0 0 0 0 0 0 127 0" result="hardAlpha"/>
<feOffset dx="9"/>
<feComposite in2="hardAlpha" operator="arithmetic" k2="-1" k3="1"/>
<feColorMatrix type="matrix" values="0 0 0 0 0 0 0 0 0 0 0 0 0 0 0 0 0 0 0.25 0"/>
<feBlend mode="normal" in2="shape" result="effect1_innerShadow_17_918"/>
</filter>
<filter id="filter27_i_17_918" x="62.5" y="151.5" width="12" height="20" filterUnits="userSpaceOnUse" color-interpolation-filters="sRGB">
<feFlood flood-opacity="0" result="BackgroundImageFix"/>
<feBlend mode="normal" in="SourceGraphic" in2="BackgroundImageFix" result="shape"/>
<feColorMatrix in="SourceAlpha" type="matrix" values="0 0 0 0 0 0 0 0 0 0 0 0 0 0 0 0 0 0 127 0" result="hardAlpha"/>
<feOffset dx="9"/>
<feComposite in2="hardAlpha" operator="arithmetic" k2="-1" k3="1"/>
<feColorMatrix type="matrix" values="0 0 0 0 0 0 0 0 0 0 0 0 0 0 0 0 0 0 0.25 0"/>
<feBlend mode="normal" in2="shape" result="effect1_innerShadow_17_918"/>
</filter>
<filter id="filter28_i_17_918" x="81.5" y="151.5" width="12" height="20" filterUnits="userSpaceOnUse" color-interpolation-filters="sRGB">
<feFlood flood-opacity="0" result="BackgroundImageFix"/>
<feBlend mode="normal" in="SourceGraphic" in2="BackgroundImageFix" result="shape"/>
<feColorMatrix in="SourceAlpha" type="matrix" values="0 0 0 0 0 0 0 0 0 0 0 0 0 0 0 0 0 0 127 0" result="hardAlpha"/>
<feOffset dx="9"/>
<feComposite in2="hardAlpha" operator="arithmetic" k2="-1" k3="1"/>
<feColorMatrix type="matrix" values="0 0 0 0 0 0 0 0 0 0 0 0 0 0 0 0 0 0 0.25 0"/>
<feBlend mode="normal" in2="shape" result="effect1_innerShadow_17_918"/>
</filter>
<filter id="filter29_i_17_918" x="99.5" y="151.5" width="12" height="20" filterUnits="userSpaceOnUse" color-interpolation-filters="sRGB">
<feFlood flood-opacity="0" result="BackgroundImageFix"/>
<feBlend mode="normal" in="SourceGraphic" in2="BackgroundImageFix" result="shape"/>
<feColorMatrix in="SourceAlpha" type="matrix" values="0 0 0 0 0 0 0 0 0 0 0 0 0 0 0 0 0 0 127 0" result="hardAlpha"/>
<feOffset dx="9"/>
<feComposite in2="hardAlpha" operator="arithmetic" k2="-1" k3="1"/>
<feColorMatrix type="matrix" values="0 0 0 0 0 0 0 0 0 0 0 0 0 0 0 0 0 0 0.25 0"/>
<feBlend mode="normal" in2="shape" result="effect1_innerShadow_17_918"/>
</filter>
<filter id="filter30_i_17_918" x="117.5" y="151.5" width="12" height="20" filterUnits="userSpaceOnUse" color-interpolation-filters="sRGB">
<feFlood flood-opacity="0" result="BackgroundImageFix"/>
<feBlend mode="normal" in="SourceGraphic" in2="BackgroundImageFix" result="shape"/>
<feColorMatrix in="SourceAlpha" type="matrix" values="0 0 0 0 0 0 0 0 0 0 0 0 0 0 0 0 0 0 127 0" result="hardAlpha"/>
<feOffset dx="9"/>
<feComposite in2="hardAlpha" operator="arithmetic" k2="-1" k3="1"/>
<feColorMatrix type="matrix" values="0 0 0 0 0 0 0 0 0 0 0 0 0 0 0 0 0 0 0.25 0"/>
<feBlend mode="normal" in2="shape" result="effect1_innerShadow_17_918"/>
</filter>
<filter id="filter31_i_17_918" x="136.5" y="151.5" width="12" height="20" filterUnits="userSpaceOnUse" color-interpolation-filters="sRGB">
<feFlood flood-opacity="0" result="BackgroundImageFix"/>
<feBlend mode="normal" in="SourceGraphic" in2="BackgroundImageFix" result="shape"/>
<feColorMatrix in="SourceAlpha" type="matrix" values="0 0 0 0 0 0 0 0 0 0 0 0 0 0 0 0 0 0 127 0" result="hardAlpha"/>
<feOffset dx="9"/>
<feComposite in2="hardAlpha" operator="arithmetic" k2="-1" k3="1"/>
<feColorMatrix type="matrix" values="0 0 0 0 0 0 0 0 0 0 0 0 0 0 0 0 0 0 0.25 0"/>
<feBlend mode="normal" in2="shape" result="effect1_innerShadow_17_918"/>
</filter>
</defs>
</svg>
