<svg width="242" height="0" viewBox="0 0 642 199" fill="none" xmlns="http://www.w3.org/2000/svg">
<rect x="568" y="14" width="12" height="21" fill="black"/>
<rect x="568" y="166" width="12" height="21" fill="black"/>
<rect x="573" width="2" height="18" fill="black"/>
<rect x="604" y="14" width="12" height="21" fill="black"/>
<rect x="609" width="2" height="18" fill="black"/>
<rect x="3.5" y="32.5" width="635" height="137" fill="#F4D06C" stroke="black" stroke-width="7"/>
<rect x="13.5" y="43.5" width="614" height="115" rx="5.5" fill="#4D9F27" stroke="black" stroke-width="7" />
<rect x="48" y="14" width="12" height="21" fill="black"/>
<rect x="88" y="14" width="12" height="21" fill="black"/>
<rect x="128" y="14" width="12" height="21" fill="black"/>
<rect x="169" y="14" width="12" height="21" fill="black"/>
<rect x="208" y="14" width="12" height="21" fill="black"/>
<rect x="248" y="14" width="12" height="21" fill="black"/>
<rect x="288" y="14" width="12" height="21" fill="black"/>
<rect x="328" y="14" width="12" height="21" fill="black"/>
<rect x="368" y="14" width="12" height="21" fill="black"/>
<rect x="408" y="14" width="12" height="21" fill="black"/>
<rect x="448" y="14" width="12" height="21" fill="black"/>
<rect x="488" y="14" width="12" height="21" fill="black"/>
<rect x="528" y="14" width="12" height="21" fill="black"/>
<rect x="48" y="166" width="12" height="21" fill="black"/>
<rect x="88" y="166" width="12" height="21" fill="black"/>
<rect x="128" y="166" width="12" height="21" fill="black"/>
<rect x="169" y="166" width="12" height="21" fill="black"/>
<rect x="208" y="166" width="12" height="21" fill="black"/>
<rect x="248" y="166" width="12" height="21" fill="black"/>
<rect x="288" y="166" width="12" height="21" fill="black"/>
<rect x="328" y="166" width="12" height="21" fill="black"/>
<rect x="368" y="166" width="12" height="21" fill="black"/>
<rect x="408" y="166" width="12" height="21" fill="black"/>
<rect x="448" y="166" width="12" height="21" fill="black"/>
<rect x="488" y="166" width="12" height="21" fill="black"/>
<rect x="528" y="166" width="12" height="21" fill="black"/>
<rect x="54" width="2" height="18" fill="black"/>
<rect x="93" width="2" height="18" fill="black"/>
<rect x="133" width="2" height="18" fill="black"/>
<rect x="175" width="2" height="18" fill="black"/>
<rect x="213" width="2" height="18" fill="black"/>
<rect x="253" width="2" height="18" fill="black"/>
<rect x="293" width="2" height="18" fill="black"/>
<rect x="333" width="2" height="18" fill="black"/>
<rect x="373" width="2" height="18" fill="black"/>
<rect x="414" width="2" height="18" fill="black"/>
<rect x="453" width="2" height="18" fill="black"/>
<rect x="493" width="2" height="18" fill="black"/>
<rect x="533" width="2" height="18" fill="black"/>
<rect x="54" y="181" width="2" height="18" fill="black"/>
<rect x="93" y="181" width="2" height="18" fill="black"/>
<rect x="133" y="181" width="2" height="18" fill="black"/>
<rect x="175" y="181" width="2" height="18" fill="black"/>
<rect x="213" y="181" width="2" height="18" fill="black"/>
<rect x="253" y="181" width="2" height="18" fill="black"/>
<rect x="293" y="181" width="2" height="18" fill="black"/>
<rect x="333" y="181" width="2" height="18" fill="black"/>
<rect x="373" y="181" width="2" height="18" fill="black"/>
<rect x="414" y="181" width="2" height="18" fill="black"/>
<rect x="453" y="181" width="2" height="18" fill="black"/>
<rect x="493" y="181" width="2" height="18" fill="black"/>
<rect x="533" y="181" width="2" height="18" fill="black"/>
<rect x="573" y="181" width="2" height="18" fill="black"/>
<rect x="604" y="166" width="12" height="21" fill="black"/>
<rect x="609" y="181" width="2" height="18" fill="black"/>
</svg>
